<?xml version="1.0" encoding="UTF-8"?>
<svg xmlns="http://www.w3.org/2000/svg" xmlns:xlink="http://www.w3.org/1999/xlink" width="37pt" height="37pt" viewBox="0 0 37 37" version="1.1">
<g id="surface1">
<path style=" stroke:none;fill-rule:evenodd;fill:rgb(95.686275%,95.686275%,95.686275%);fill-opacity:1;" d="M 0 18.5 L 0 37 L 37 37 L 37 0 L 0 0 L 0 18.5 M 33.984375 6.214844 L 33.984375 9.34375 L 30.921875 9.351562 L 27.863281 9.363281 L 27.851562 12.421875 L 27.84375 15.484375 L 18.546875 15.492188 L 9.25 15.503906 L 9.25 9.359375 L 6.21875 9.359375 C 4.550781 9.359375 3.160156 9.351562 3.128906 9.339844 C 3.070312 9.316406 3.035156 3.15625 3.09375 3.09375 C 3.109375 3.082031 10.066406 3.074219 18.550781 3.082031 L 33.984375 3.089844 L 33.984375 6.214844 M 15.503906 24.660156 L 15.523438 27.730469 L 18.546875 27.742188 L 21.570312 27.75 L 21.578125 24.671875 L 21.589844 21.589844 L 33.984375 21.589844 L 33.984375 27.84375 L 27.832031 27.851562 L 21.683594 27.859375 L 21.671875 30.921875 L 21.664062 33.984375 L 18.546875 33.992188 L 15.429688 34.003906 L 15.429688 27.859375 L 9.308594 27.859375 C 5.941406 27.859375 3.160156 27.851562 3.128906 27.839844 C 3.070312 27.816406 3.035156 21.65625 3.097656 21.59375 C 3.109375 21.582031 5.902344 21.574219 9.300781 21.582031 L 15.484375 21.589844 L 15.503906 24.660156 "/>
<path style=" stroke:none;fill-rule:evenodd;fill:rgb(83.137255%,58.039216%,86.27451%);fill-opacity:1;" d="M 3.09375 3.09375 C 3.035156 3.15625 3.070312 9.316406 3.128906 9.339844 C 3.160156 9.351562 4.550781 9.359375 6.21875 9.359375 L 9.25 9.359375 L 9.25 15.503906 L 18.546875 15.492188 L 27.84375 15.484375 L 27.851562 12.421875 L 27.863281 9.363281 L 30.921875 9.351562 L 33.984375 9.34375 L 33.984375 3.089844 L 18.550781 3.082031 C 10.066406 3.074219 3.109375 3.082031 3.09375 3.09375 M 3.097656 21.59375 C 3.035156 21.65625 3.070312 27.816406 3.128906 27.839844 C 3.160156 27.851562 5.941406 27.859375 9.308594 27.859375 L 15.429688 27.859375 L 15.429688 34.003906 L 18.546875 33.992188 L 21.664062 33.984375 L 21.671875 30.921875 L 21.683594 27.859375 L 27.832031 27.851562 L 33.984375 27.84375 L 33.984375 21.589844 L 21.589844 21.589844 L 21.578125 24.671875 L 21.570312 27.75 L 18.546875 27.742188 L 15.523438 27.730469 L 15.484375 21.589844 L 9.300781 21.582031 C 5.902344 21.574219 3.109375 21.582031 3.097656 21.59375 "/>
</g>
</svg>
